#!OML:ASF F:\VICON\USERDATA\INSTALL\rory3\rory3.ASF
:FULLY-SPECIFIED
:DEGREES
548
root -14.1905 18.2718 15.4315 -189.952 71.1933 174.616
lowerback 10.101 2.01816 -1.02549
upperback 2.21314 2.63987 -0.649836
thorax -3.3693 1.35631 -0.437891
lowerneck -9.50637 0.654843 -13.3323
upperneck 41.9929 7.11778 3.34585
head 16.2224 2.43392 5.28744
rclavicle -4.8095e-014 6.08778e-015
rhumerus -40.3974 -25.0683 -71.5441
rradius 26.2581
rwrist 11.4476
rhand -12.2083 8.48636
rfingers 7.12502
rthumb 13.8562 -21.0321
lclavicle -4.8095e-014 6.08778e-015
lhumerus -26.7691 5.3871 76.482
lradius 43.2394
lwrist -0.69815
lhand -21.7924 25.7347
lfingers 7.12502
lthumb 4.60926 55.6646
rfemur -5.04933 -13.6453 16.2929
rtibia 58.5991
rfoot -1.13738 2.27192
rtoes -17.5724
lfemur -5.18363 -7.84381 -23.6636
ltibia 24.2325
lfoot 8.48976 -25.139
ltoes 16.4439
549
root -14.2926 18.2721 15.4372 -190.105 71.3309 174.481
lowerback 9.8631 1.94947 -1.06346
upperback 2.12206 2.54342 -0.6067
thorax -3.33587 1.30658 -0.352465
lowerneck -8.94345 0.549807 -13.5739
upperneck 41.7598 6.8571 3.38233
head 15.9831 2.3177 5.26387
rclavicle -2.31242e-014 1.28589e-015
rhumerus -40.2548 -25.0946 -71.5226
rradius 26.0609
rwrist 11.8583
rhand -12.3994 8.31161
rfingers 7.12502
rthumb 13.672 -21.2193
lclavicle -2.31242e-014 1.28589e-015
lhumerus -26.9356 6.16092 76.2053
lradius 42.912
lwrist -0.626023
lhand -21.3587 25.9131
lfingers 7.12502
lthumb 5.02802 55.8334
rfemur -3.74787 -13.2957 16.4016
rtibia 57.7876
rfoot -0.747557 2.23855
rtoes -17.2635
lfemur -5.47423 -7.7572 -23.7055
ltibia 24.1566
lfoot 8.78704 -25.0958
ltoes 16.6627
550
root -14.3973 18.2676 15.4499 -189.564 71.5952 175.005
lowerback 9.66815 1.93189 -0.98439
upperback 1.94678 2.52589 -0.447363
thorax -3.41394 1.29391 -0.226359
lowerneck -8.24434 0.435267 -13.7535
upperneck 41.5006 6.61047 3.27151
head 15.7146 2.2047 5.16285
rclavicle 3.29206e-014 -7.55382e-015
rhumerus -40.177 -24.884 -71.511
rradius 25.9326
rwrist 12.045
rhand -13.0745 8.06838
rfingers 7.12502
rthumb 13.0213 -21.5052
lclavicle 3.29206e-014 -7.55382e-015
lhumerus -27.2483 7.12484 76.0069
lradius 42.6756
lwrist -0.781164
lhand -20.6964 25.9039
lfingers 7.12502
lthumb 5.66744 55.8081
rfemur -2.57198 -12.7262 16.9233
rtibia 56.8623
rfoot -0.419996 2.06131
rtoes -18.2911
lfemur -5.79176 -7.74267 -23.4903
ltibia 24.0309
lfoot 8.59944 -25.0798
ltoes 15.4265
551
root -14.5041 18.2598 15.4616 -189.432 71.8809 175.058
lowerback 9.51552 1.95336 -1.04737
upperback 1.72307 2.54344 -0.322715
thorax -3.57027 1.30011 -0.063789
lowerneck -7.63282 0.28375 -14.0977
upperneck 41.4177 6.32932 3.3444
head 15.5524 2.06727 5.18663
rclavicle -5.09386e-015 -3.97569e-016
rhumerus -40.1346 -24.4554 -71.5814
rradius 25.9022
rwrist 12.0852
rhand -13.5247 7.61837
rfingers 7.12502
rthumb 12.5874 -21.9824
lclavicle -5.09386e-015 -3.97569e-016
lhumerus -27.7173 7.86447 75.8888
lradius 42.5349
lwrist -0.915087
lhand -20.4283 25.9567
lfingers 7.12502
lthumb 5.92637 55.8538
rfemur -1.44247 -12.109 17.2492
rtibia 55.8241
rfoot 0.0669222 2.03
rtoes -18.7102
lfemur -6.16995 -7.78994 -23.4635
ltibia 23.9472
lfoot 8.50307 -24.8912
ltoes 15.2343
552
root -14.609 18.2542 15.4692 -189.718 72.0862 174.654
lowerback 9.0883 1.98018 -0.990423
upperback 1.71773 2.58503 -0.40944
thorax -3.33265 1.31881 -0.17408
lowerneck -7.29408 0.10656 -14.4186
upperneck 41.3066 5.91705 3.65906
head 15.4361 1.89326 5.30298
rclavicle -1.58872e-014 -7.40473e-015
rhumerus -39.7996 -24.5092 -71.8544
rradius 25.8705
rwrist 12.0935
rhand -13.3642 7.42646
rfingers 7.12502
rthumb 12.7421 -22.1647
lclavicle -1.58872e-014 -7.40473e-015
lhumerus -27.6887 8.21904 75.7252
lradius 42.2021
lwrist -0.744701
lhand -20.7694 25.8903
lfingers 7.12502
lthumb 5.59702 55.7963
rfemur -0.296917 -11.5539 17.3466
rtibia 54.6497
rfoot 0.550503 2.12718
rtoes -17.786
lfemur -6.59918 -7.72298 -23.5949
ltibia 23.8786
lfoot 8.67089 -24.7309
ltoes 16.0074
553
root -14.7171 18.2458 15.4782 -189.597 72.3018 174.713
lowerback 8.92156 2.00852 -0.873735
upperback 1.55271 2.62782 -0.426924
thorax -3.40551 1.33641 -0.259953
lowerneck -6.77713 -0.046554 -14.4555
upperneck 41.2345 5.57212 3.7252
head 15.3153 1.76664 5.27043
rclavicle 1.46868e-014 8.29926e-015
rhumerus -39.7242 -24.1586 -72.1798
rradius 25.9984
rwrist 11.5551
rhand -13.2227 7.27281
rfingers 7.12502
rthumb 12.8785 -22.3098
lclavicle 1.46868e-014 8.29926e-015
lhumerus -28.0072 8.83148 75.4979
lradius 42.0019
lwrist -0.805278
lhand -21.1353 25.8479
lfingers 7.12502
lthumb 5.24371 55.763
rfemur 0.862829 -10.9493 17.6747
rtibia 53.3624
rfoot 0.780384 2.22896
rtoes -17.9018
lfemur -7.00236 -7.56246 -23.5556
ltibia 23.7947
lfoot 8.64848 -24.7334
ltoes 15.7576
554
root -14.8306 18.2304 15.4891 -189.586 72.5654 174.659
lowerback 8.88928 2.05751 -0.853821
upperback 1.30745 2.68657 -0.406587
thorax -3.64238 1.36239 -0.261834
lowerneck -6.39983 -0.248001 -14.4358
upperneck 41.3748 5.25754 3.68701
head 15.3454 1.63805 5.21186
rclavicle -4.07974e-014 9.93923e-016
rhumerus -39.765 -24.0337 -72.2398
rradius 26.0154
rwrist 11.5041
rhand -13.293 7.17808
rfingers 7.12502
rthumb 12.8107 -22.4088
lclavicle -4.07974e-014 9.93923e-016
lhumerus -28.6139 9.7297 75.2291
lradius 41.9466
lwrist -1.07961
lhand -21.3798 25.5634
lfingers 7.12502
lthumb 5.00762 55.4842
rfemur 1.99471 -10.2274 18.0354
rtibia 51.9727
rfoot 0.847386 2.44377
rtoes -19.2077
lfemur -7.42748 -7.43793 -23.5451
ltibia 23.7494
lfoot 8.44628 -24.7932
ltoes 14.855
555
root -14.946 18.2144 15.5004 -189.964 72.8313 174.133
lowerback 8.70083 2.13128 -0.895496
upperback 1.16068 2.77595 -0.439371
thorax -3.69052 1.4053 -0.279009
lowerneck -6.37436 -0.488168 -14.1817
upperneck 41.6623 4.98378 3.46791
head 15.5437 1.5228 5.06395
rclavicle 1.75536e-014 3.23025e-015
rhumerus -39.6648 -24.4477 -72.0923
rradius 25.9275
rwrist 11.9308
rhand -13.2745 7.47939
rfingers 7.12502
rthumb 12.8285 -22.1064
lclavicle 1.75536e-014 3.23025e-015
lhumerus -29.0039 10.5051 75.0557
lradius 41.8426
lwrist -1.20903
lhand -21.2877 25.5489
lfingers 7.12502
lthumb 5.09654 55.4677
rfemur 3.03962 -9.4359 18.2498
rtibia 50.4826
rfoot 1.0452 2.86958
rtoes -19.5685
lfemur -7.96986 -7.09317 -23.6723
ltibia 23.7769
lfoot 8.19385 -25.0385
ltoes 13.5293
556
root -15.0642 18.1987 15.5137 -190.133 73.1226 173.845
lowerback 8.4553 2.24621 -0.701995
upperback 1.13508 2.94439 -0.540146
thorax -3.56593 1.48541 -0.500844
lowerneck -5.76406 -0.752152 -14.8095
upperneck 41.3717 4.28747 4.12505
head 15.291 1.23158 5.32857
rclavicle -3.90814e-015 4.47266e-015
rhumerus -39.3666 -24.7751 -72.2269
rradius 25.9554
rwrist 12.0027
rhand -13.3434 7.53914
rfingers 7.12502
rthumb 12.7621 -22.0508
lclavicle -3.90814e-015 4.47266e-015
lhumerus -29.0805 10.9872 74.9586
lradius 41.6511
lwrist -1.198
lhand -21.2104 25.6047
lfingers 7.12502
lthumb 5.17116 55.5216
rfemur 4.06277 -8.7081 18.5354
rtibia 48.8735
rfoot 1.57636 3.40582
rtoes -18.9708
lfemur -8.52947 -6.74503 -23.6961
ltibia 23.8177
lfoot 8.4951 -25.0803
ltoes 13.8127
557
root -15.1857 18.187 15.529 -189.904 73.3764 173.897
lowerback 8.43616 2.2868 -0.591451
upperback 0.869896 3.00135 -0.505029
thorax -3.82663 1.50879 -0.539471
lowerneck -5.11962 -0.876314 -15.3234
upperneck 41.2248 3.95367 4.45491
head 15.0942 1.07337 5.48906
rclavicle 4.91449e-014 -2.33572e-015
rhumerus -39.3069 -24.3811 -72.3961
rradius 26.1282
rwrist 11.7589
rhand -13.2536 7.29329
rfingers 7.12502
rthumb 12.8487 -22.2912
lclavicle 4.91449e-014 -2.33572e-015
lhumerus -29.6718 11.6052 74.8518
lradius 41.557
lwrist -1.08547
lhand -21.4071 25.4838
lfingers 7.12502
lthumb 4.98124 55.4052
rfemur 4.95629 -8.18294 18.9074
rtibia 47.1581
rfoot 2.30699 3.90794
rtoes -18.1567
lfemur -9.18605 -6.67953 -23.5592
ltibia 23.8429
lfoot 9.34668 -24.8385
ltoes 16.2216
558
root -15.31 18.1771 15.5437 -189.674 73.6357 173.929
lowerback 8.16274 2.33165 -0.387224
upperback 0.835401 3.07858 -0.541281
thorax -3.69688 1.54347 -0.688107
lowerneck -8.09422 -2.08292 -13.5307
upperneck 43.9054 3.58641 2.32309
head 17.5027 0.755198 4.47945
rclavicle 2.78019e-014 8.49804e-015
rhumerus -38.8418 -24.2437 -72.7458
rradius 26.2593
rwrist 11.6483
rhand -13.1949 7.28108
rfingers 7.12502
rthumb 12.9054 -22.2999
lclavicle 2.78019e-014 8.49804e-015
lhumerus -29.8027 12.1533 74.7476
lradius 41.3233
lwrist -0.894874
lhand -21.5384 25.3935
lfingers 7.12502
lthumb 4.8545 55.3179
rfemur 5.82516 -7.59141 19.2938
rtibia 45.3592
rfoot 3.1924 4.18777
rtoes -17.0766
lfemur -9.86892 -6.77915 -23.4256
ltibia 23.8655
lfoot 10.0927 -24.445
ltoes 19.0334
559
root -15.4339 18.1653 15.5606 -189.925 73.9067 173.476
lowerback 8.00525 2.368 -0.394623
upperback 0.743508 3.12373 -0.56021
thorax -3.70329 1.56476 -0.703792
lowerneck -7.96676 -2.23171 -13.3025
upperneck 43.796 3.35354 2.03648
head 17.4448 0.660959 4.25898
rclavicle -4.00722e-014 -4.47266e-016
rhumerus -38.4342 -24.119 -72.9964
rradius 26.3732
rwrist 11.5764
rhand -13.2146 7.45372
rfingers 7.12502
rthumb 12.8863 -22.1284
lclavicle -4.00722e-014 -4.47266e-016
lhumerus -30.1145 12.7658 74.6275
lradius 41.188
lwrist -0.636272
lhand -21.1888 25.7523
lfingers 7.12502
lthumb 5.19205 55.6687
rfemur 6.68821 -6.81222 19.5759
rtibia 43.498
rfoot 4.06842 4.26531
rtoes -15.9113
lfemur -10.5422 -6.8982 -23.4644
ltibia 23.9394
lfoot 9.98505 -24.3467
ltoes 18.9932
560
root -15.5626 18.1501 15.5821 -190.097 74.2407 173.094
lowerback 7.82654 2.47668 -0.276942
upperback 0.738614 3.27676 -0.633403
thorax -3.59661 1.63882 -0.853021
lowerneck -7.98669 -2.43581 -13.3606
upperneck 43.7602 2.98716 2.11561
head 17.4662 0.503179 4.24721
rclavicle -2.08072e-014 -4.96962e-016
rhumerus -37.9307 -24.2946 -73.2929
rradius 26.5593
rwrist 11.4924
rhand -13.2389 7.44724
rfingers 7.12502
rthumb 12.8629 -22.1364
lclavicle -2.08072e-014 -4.96962e-016
lhumerus -30.1985 12.965 74.6483
lradius 41.0435
lwrist -0.165624
lhand -21.2932 25.9093
lfingers 7.12502
lthumb 5.09124 55.8282
rfemur 7.47162 -5.96406 19.9195
rtibia 41.6008
rfoot 4.82332 4.18504
rtoes -13.8393
lfemur -11.2555 -6.89595 -23.4411
ltibia 24.0559
lfoot 9.76207 -24.3102
ltoes 18.1807
